<svg width="279" height="95" viewBox="0 0 279 95" fill="none" xmlns="http://www.w3.org/2000/svg">
<path d="M258 16V28.502H276V79.1299H258V92H21V79.1299H3V28.502H21V16H258Z" fill="white" stroke="white" stroke-width="6"/>
<path d="M258 3V15.502H276V66.1299H258V79H21V66.1299H3V15.502H21V3H258Z" fill="black" stroke="white" stroke-width="6"/>
<path d="M70.1 39V34H60.1V29H70.1V34H75.1V39H70.1ZM60.1 54V49H55.1V34H60.1V49H70.1V54H60.1ZM70.1 49V44H75.1V49H70.1ZM84.9 54V49H79.9V34H84.9V29H94.9V34H99.9V49H94.9V54H84.9ZM84.9 48.8H94.9V34.2H84.9V48.8ZM104.7 54V29H109.7V34H114.7V39H119.7V44H114.7V39H109.7V54H104.7ZM124.7 54V39H119.7V34H124.7V29H129.7V54H124.7ZM134.5 54V29H149.5V34H139.5V39H149.5V44H139.5V49H149.5V54H134.5ZM169.3 39V34H159.3V29H169.3V34H174.3V39H169.3ZM159.3 54V49H154.3V34H159.3V49H169.3V54H159.3ZM169.3 49V44H174.3V49H169.3ZM159.3 59V54H164.3V59H159.3ZM154.3 64V59H159.3V64H154.3ZM179.1 54V34H184.1V29H194.1V34H199.1V54H194.1V44H184.1V54H179.1ZM184.1 39H194.1V34.2H184.1V39ZM203.9 54V29H218.9V34H223.9V39H218.9V49H223.9V54H218.9V49H213.9V44H208.9V54H203.9ZM208.9 39H218.7V34H208.9V39Z" fill="white"/>
</svg>
